# File created by Blade
# Date/Time:  Tue Apr 07 20:13:55 2015
# Frame Rate: 120.000 fps
#------------------------------------------------------
:FULLY-SPECIFIED
:DEGREES
1181
root 1.700252 32.900555 -7.362627 -39.839482 33.901986 -29.145646
Spine 21.120438 -9.993431 14.185227
Head 8.468308 0.298421 5.245350
LeftShoulder -3.082859 37.460120 27.035777
LeftArm 80.020950 24.668275 -37.388961
LeftForeArm -66.236045 -0.000000 93.552781
LeftHand 7.008253 -0.000000 37.460476
LeftHandThumb1 -26.253704 0.000000 33.147579
RightShoulder -0.827675 -2.951477 -16.703113
RightArm 19.810463 -22.072375 69.131496
RightForeArm 48.871211 -0.000000 91.217200
RightHand -1.924301 -0.000000 25.922887
RightHandThumb1 -24.326973 -0.000000 -32.862282
LeftUpLeg 11.027422 -1.845013 20.109544
LeftLeg 27.476804 -0.000000 -0.000000
LeftFoot -20.603251 7.331490 -12.402372
LeftToeBase -9.987555 -0.000000 0.000000
RightUpLeg -118.245107 2.257855 18.547579
RightLeg 100.374664 -0.000000 -0.000000
RightFoot 42.957359 -5.765043 -0.080088
RightToeBase 36.932913 -0.000000 -0.000000
1182
root 1.709856 32.888457 -7.369850 -39.689766 33.879417 -28.968486
Spine 21.071554 -9.961570 14.080018
Head 8.546037 0.378047 5.378602
LeftShoulder -3.102237 37.516341 26.976286
LeftArm 79.964960 24.713016 -37.562237
LeftForeArm -66.247731 0.000000 93.355471
LeftHand 6.880307 -0.000000 37.171469
LeftHandThumb1 -26.253704 0.000000 33.147579
RightShoulder -0.910673 -2.843213 -16.746277
RightArm 19.898600 -22.164419 68.778609
RightForeArm 48.843661 -0.000000 91.339429
RightHand -2.095672 -0.000000 25.741853
RightHandThumb1 -24.326973 -0.000000 -32.862282
LeftUpLeg 10.954046 -1.604300 20.080106
LeftLeg 27.631063 -0.000000 -0.000000
LeftFoot -20.654667 6.947490 -12.794163
LeftToeBase -9.739929 -0.000000 0.000000
RightUpLeg -118.107293 2.411757 18.644747
RightLeg 99.964013 -0.000000 -0.000000
RightFoot 42.959770 -6.270942 0.204537
RightToeBase 37.289640 -0.000000 -0.000000
1183
root 1.720958 32.875871 -7.379137 -39.555841 33.913520 -28.757967
Spine 21.067570 -9.994051 13.893328
Head 8.608773 0.472660 5.487111
LeftShoulder -3.121310 37.608126 26.883830
LeftArm 79.897111 24.703464 -37.737853
LeftForeArm -66.337916 0.000000 93.183952
LeftHand 6.881525 -0.000000 36.955286
LeftHandThumb1 -26.253704 0.000000 33.147579
RightShoulder -0.919795 -2.780481 -16.863840
RightArm 19.946408 -22.334484 68.481566
RightForeArm 49.218140 -0.000000 91.282852
RightHand -2.060709 -0.000000 25.404075
RightHandThumb1 -24.326973 -0.000000 -32.862282
LeftUpLeg 10.908506 -1.446716 19.972579
LeftLeg 27.766298 -0.000000 -0.000000
LeftFoot -20.736270 6.526970 -13.353932
LeftToeBase -9.342655 -0.000000 0.000000
RightUpLeg -117.963353 2.532374 18.733306
RightLeg 99.506202 -0.000000 -0.000000
RightFoot 42.929567 -6.684007 0.298237
RightToeBase 36.960326 -0.000000 -0.000000
1184
root 1.871330 32.856936 -7.384671 -39.832093 34.789510 -28.024785
Spine 21.521294 -10.638078 12.870808
Head 8.857997 0.556754 5.314956
LeftShoulder -3.130375 37.792565 26.593161
LeftArm 79.855620 24.746340 -37.855625
LeftForeArm -66.401810 -0.000000 92.998824
LeftHand 6.995924 -0.000000 36.847249
LeftHandThumb1 -26.253704 0.000000 33.147579
RightShoulder -0.876952 -2.909891 -17.196950
RightArm 19.956295 -22.591090 68.230131
RightForeArm 49.353309 -0.000000 91.233714
RightHand -1.853176 -0.000000 25.024639
RightHandThumb1 -24.326973 -0.000000 -32.862282
LeftUpLeg 11.769918 -2.252559 18.553665
LeftLeg 27.423542 -0.000000 -0.000000
LeftFoot -20.877875 6.769533 -14.051658
LeftToeBase -8.701310 -0.000000 0.000000
RightUpLeg -117.414029 2.191301 16.966691
RightLeg 99.550240 -0.000000 -0.000000
RightFoot 41.823579 -6.961155 0.986880
RightToeBase 37.802243 -0.000000 -0.000000
